<svg width="230" height="194" viewBox="0 0 230 194" fill="none" xmlns="http://www.w3.org/2000/svg">
<ellipse cx="130" cy="97" rx="96" ry="97" fill="url(#paint0_linear_2_2)"/>
<path d="M102.859 62.3073C102.918 62.3516 102.947 62.418 102.947 62.5065C102.947 62.6098 102.888 62.6615 102.77 62.6615C102.711 62.6615 102.667 62.6467 102.637 62.6172C102.136 62.2778 101.612 62.0269 101.066 61.8646C100.535 61.7023 100.011 61.6063 99.4941 61.5768C99.3908 61.6506 99.1252 61.8424 98.6973 62.1523C98.2693 62.4622 97.7454 62.9049 97.1257 63.4805C96.5059 64.056 95.8344 64.7717 95.1113 65.6276C94.3882 66.4687 93.6799 67.4575 92.9863 68.5938C92.2928 69.73 91.6434 71.0139 91.0384 72.4453C90.4481 73.8767 89.9833 75.4705 89.6439 77.2266C90.2489 77.079 90.7728 76.9167 91.2155 76.7396C91.673 76.5477 92.0493 76.378 92.3444 76.2305C92.6395 76.0681 92.8609 75.9353 93.0085 75.832C93.1708 75.714 93.2593 75.6476 93.2741 75.6328C93.3331 75.6033 93.3774 75.5885 93.4069 75.5885C93.4512 75.5885 93.4954 75.6033 93.5397 75.6328C93.584 75.6623 93.6061 75.7066 93.6061 75.7656C93.6061 75.8247 93.5766 75.8837 93.5176 75.9427C93.5176 75.9427 93.4364 76.0091 93.2741 76.1419C93.1118 76.26 92.8609 76.4076 92.5215 76.5846C92.1968 76.747 91.7836 76.9314 91.2819 77.138C90.7949 77.3299 90.2194 77.4996 89.5553 77.6471C89.393 78.6359 89.275 79.6467 89.2012 80.6797C89.1274 81.7127 89.0905 82.8194 89.0905 84H88.6921C88.6921 83.0703 88.6035 82.0964 88.4264 81.0781C88.2493 80.0599 87.9542 79.0343 87.541 78.0013C87.2164 78.0308 86.8991 78.053 86.5892 78.0677C86.2793 78.0825 85.9546 78.0898 85.6152 78.0898C84.5675 78.0898 83.6526 78.0382 82.8704 77.9349C82.0883 77.8168 81.4169 77.6766 80.8561 77.5143C80.2511 78.503 79.6534 79.4549 79.0632 80.3698C78.4729 81.27 77.8531 82.0668 77.2038 82.7604C76.5692 83.454 75.8904 84.0074 75.1673 84.4206C74.4442 84.8338 73.6474 85.0404 72.7767 85.0404C72.2012 85.0404 71.7142 84.9444 71.3158 84.7526C70.9173 84.5608 70.5853 84.3173 70.3197 84.0221C70.054 83.727 69.8474 83.4097 69.6999 83.0703C69.5523 82.7161 69.4416 82.3915 69.3678 82.0964C69.2941 81.7865 69.2498 81.5208 69.235 81.2995C69.2203 81.0781 69.2129 80.9527 69.2129 80.9232C69.2129 80.7756 69.2793 80.7018 69.4121 80.7018C69.5449 80.7018 69.6113 80.7682 69.6113 80.901C69.6113 81.1962 69.6556 81.5577 69.7441 81.9857C69.8474 82.3989 70.0171 82.8047 70.2533 83.2031C70.5041 83.6016 70.8362 83.941 71.2493 84.2214C71.6625 84.5017 72.179 84.6419 72.7988 84.6419C73.5957 84.6419 74.3262 84.4427 74.9902 84.0443C75.6691 83.6606 76.311 83.1367 76.916 82.4727C77.5211 81.8086 78.1113 81.0412 78.6868 80.1706C79.2624 79.2852 79.86 78.3555 80.4798 77.3815C79.7567 77.0864 79.2402 76.747 78.9303 76.3633C78.6204 75.9796 78.4655 75.5738 78.4655 75.1458C78.4655 74.7474 78.5467 74.408 78.709 74.1276C78.8861 73.8325 79.1148 73.5964 79.3952 73.4193C79.6903 73.2422 80.0224 73.1168 80.3913 73.043C80.7602 72.9544 81.1439 72.9102 81.5423 72.9102C81.8227 72.9102 82.1031 72.9249 82.3835 72.9544C82.6786 72.9839 82.9737 73.043 83.2689 73.1315C83.3427 73.0135 83.4238 72.8954 83.5124 72.7773C83.6009 72.6445 83.6895 72.5191 83.778 72.401C84.9586 70.8073 86.1317 69.3242 87.2975 67.9518C88.4781 66.5794 89.6882 65.3989 90.9277 64.4102C92.1673 63.4067 93.4512 62.6246 94.7793 62.0638C96.1222 61.4883 97.5462 61.2005 99.0514 61.2005C99.6565 61.2005 100.284 61.2743 100.933 61.4219C101.597 61.5694 102.239 61.8646 102.859 62.3073ZM78.8639 75.1458C78.8639 75.3967 78.9156 75.6181 79.0189 75.8099C79.1369 76.0017 79.2845 76.1788 79.4616 76.3411C79.6387 76.4887 79.8305 76.6215 80.0371 76.7396C80.2585 76.8429 80.4798 76.9388 80.7012 77.0273C81.0701 76.4518 81.439 75.8689 81.8079 75.2786C82.1916 74.6736 82.5974 74.0686 83.0254 73.4635C82.5532 73.3455 82.0588 73.2865 81.5423 73.2865C81.2619 73.2865 80.9668 73.316 80.6569 73.375C80.347 73.4193 80.0592 73.5078 79.7936 73.6406C79.528 73.7734 79.3066 73.9653 79.1296 74.2161C78.9525 74.4523 78.8639 74.7622 78.8639 75.1458ZM84.8184 77.6914C85.2316 77.6914 85.6447 77.6914 86.0579 77.6914C86.4711 77.6766 86.9138 77.6471 87.3861 77.6029C86.9876 76.7174 86.4711 75.9132 85.8366 75.1901C85.202 74.4523 84.3978 73.921 83.4238 73.5964C82.9959 74.1866 82.5901 74.7843 82.2064 75.3893C81.8375 75.9796 81.4612 76.5699 81.0775 77.1602C81.5349 77.293 82.0662 77.411 82.6712 77.5143C83.2763 77.6029 83.992 77.6619 84.8184 77.6914ZM88.7585 80.8789C88.788 80.3181 88.8322 79.7795 88.8913 79.263C88.9651 78.7465 89.0462 78.2448 89.1348 77.7578C88.7511 77.8316 88.3526 77.898 87.9395 77.957C88.1461 78.4293 88.3158 78.9236 88.4486 79.4401C88.5814 79.9418 88.6847 80.4214 88.7585 80.8789ZM93.9824 66.4023C94.4694 65.7383 94.9564 65.148 95.4434 64.6315C95.9303 64.1003 96.3804 63.6354 96.7936 63.237C97.2216 62.8385 97.6053 62.5065 97.9447 62.2409C98.2988 61.9605 98.5866 61.7391 98.8079 61.5768C97.3913 61.6358 96.041 61.9531 94.7572 62.5286C93.4881 63.0894 92.2559 63.8568 91.0605 64.8307C89.88 65.7899 88.7142 66.9336 87.5632 68.2617C86.4269 69.5898 85.2758 71.0508 84.11 72.6445C84.0362 72.7478 83.9625 72.8511 83.8887 72.9544C83.8149 73.043 83.7411 73.1389 83.6673 73.2422C84.7003 73.6259 85.5488 74.2088 86.2129 74.9909C86.877 75.773 87.4008 76.6289 87.7845 77.5586C88.0354 77.5291 88.2789 77.4996 88.515 77.4701C88.7658 77.4258 89.002 77.3815 89.2233 77.3372C89.4447 76.1419 89.725 75.0278 90.0645 73.9948C90.4039 72.947 90.7802 71.9731 91.1934 71.0729C91.6213 70.158 92.0714 69.3168 92.5436 68.5495C93.0158 67.7674 93.4954 67.0516 93.9824 66.4023ZM89.8542 84.1107C89.8542 84.0959 89.9427 84 90.1198 83.8229C90.2969 83.6458 90.5256 83.4245 90.806 83.1589C91.0864 82.8785 91.3963 82.5686 91.7357 82.2292C92.0751 81.875 92.4145 81.5282 92.7539 81.1888C93.0933 80.8346 93.418 80.5026 93.7279 80.1927C94.023 79.8828 94.2665 79.6172 94.4583 79.3958C95.3585 78.3924 96.0816 77.5438 96.6276 76.8503C97.1884 76.1567 97.6163 75.5812 97.9115 75.1237C98.2214 74.6515 98.428 74.2826 98.5312 74.0169C98.6345 73.7365 98.6862 73.5299 98.6862 73.3971C98.6862 73.2348 98.6272 73.1389 98.5091 73.1094C98.3911 73.0651 98.332 72.9839 98.332 72.8659C98.332 72.7331 98.3911 72.6667 98.5091 72.6667C98.7157 72.6667 98.8633 72.7552 98.9518 72.9323C99.0404 73.1094 99.0846 73.2717 99.0846 73.4193C99.0846 73.8472 98.819 74.4818 98.2878 75.3229C97.7565 76.1641 96.9596 77.1823 95.8971 78.3776C97.0334 77.3594 98.1107 76.4887 99.1289 75.7656C100.162 75.0278 101.114 74.4227 101.984 73.9505C102.855 73.4783 103.637 73.1315 104.331 72.9102C105.039 72.674 105.637 72.556 106.124 72.556C106.375 72.556 106.625 72.5929 106.876 72.6667C107.127 72.7257 107.349 72.8364 107.54 72.9987C107.732 73.1463 107.887 73.3529 108.005 73.6185C108.123 73.8841 108.182 74.2088 108.182 74.5924C108.182 75.0942 108.064 75.6697 107.828 76.319C107.592 76.9683 107.245 77.684 106.788 78.4661C108.632 76.6215 110.278 75.227 111.724 74.2826C113.17 73.3381 114.498 72.8659 115.708 72.8659C115.797 72.8659 115.878 72.8659 115.952 72.8659C116.04 72.8659 116.122 72.8733 116.195 72.888C116.225 72.888 116.321 72.9102 116.483 72.9544C116.66 72.9839 116.837 73.0577 117.014 73.1758C117.206 73.2791 117.376 73.434 117.523 73.6406C117.686 73.8472 117.767 74.135 117.767 74.5039C117.767 75.6845 116.778 77.411 114.801 79.6836C114.151 80.4214 113.716 81.0191 113.495 81.4766C113.273 81.934 113.163 82.2882 113.163 82.5391C113.163 82.908 113.31 83.1662 113.605 83.3138C113.915 83.4466 114.255 83.513 114.624 83.513C114.86 83.513 115.111 83.4909 115.376 83.4466C115.642 83.4023 115.893 83.3507 116.129 83.2917C116.38 83.2179 116.609 83.1441 116.815 83.0703C117.022 82.9965 117.191 82.9301 117.324 82.8711C117.914 82.6202 118.667 82.1997 119.582 81.6094C120.497 81.0191 121.537 80.1706 122.703 79.0638C122.747 79.0195 122.799 78.9974 122.858 78.9974C122.976 78.9974 123.035 79.0638 123.035 79.1966C123.035 79.2409 123.02 79.2925 122.991 79.3516C121.796 80.5026 120.726 81.3806 119.781 81.9857C118.837 82.576 118.062 82.9965 117.457 83.2474C117.088 83.4097 116.645 83.5647 116.129 83.7122C115.612 83.8451 115.111 83.9115 114.624 83.9115C114.402 83.9115 114.181 83.8893 113.96 83.8451C113.738 83.8008 113.539 83.727 113.362 83.6237C113.185 83.5204 113.037 83.3876 112.919 83.2253C112.816 83.0482 112.764 82.8342 112.764 82.5833C112.764 82.2439 112.89 81.8234 113.141 81.3216C113.391 80.8051 113.849 80.1706 114.513 79.418C115.443 78.3555 116.151 77.411 116.638 76.5846C117.125 75.7582 117.368 75.072 117.368 74.526C117.368 74.2457 117.302 74.0243 117.169 73.862C117.051 73.6849 116.918 73.5521 116.771 73.4635C116.623 73.375 116.483 73.316 116.35 73.2865C116.232 73.2569 116.166 73.2422 116.151 73.2422C116.077 73.2274 116.003 73.2201 115.93 73.2201C115.871 73.2201 115.804 73.2201 115.73 73.2201C114.476 73.2201 112.978 73.8325 111.237 75.0573C109.496 76.2674 107.54 78.112 105.371 80.5911C105.002 81.0191 104.574 81.543 104.087 82.1628C103.6 82.7826 103.076 83.4245 102.516 84.0885L102.206 83.8451C102.206 83.8451 102.294 83.7418 102.471 83.5352C102.648 83.3138 102.87 83.0408 103.135 82.7161C103.416 82.3767 103.718 82.0004 104.043 81.5872C104.382 81.174 104.722 80.7535 105.061 80.3255C105.947 79.1302 106.618 78.0456 107.076 77.0716C107.533 76.0977 107.762 75.2713 107.762 74.5924C107.762 74.2973 107.717 74.0538 107.629 73.862C107.54 73.6554 107.444 73.4931 107.341 73.375C107.238 73.2569 107.142 73.1758 107.053 73.1315C106.965 73.0872 106.921 73.0651 106.921 73.0651C106.655 72.9913 106.389 72.9544 106.124 72.9544C105.504 72.9544 104.722 73.1536 103.777 73.5521C102.848 73.9505 101.807 74.526 100.656 75.2786C99.5052 76.0165 98.2656 76.924 96.9375 78.0013C95.6094 79.0786 94.2517 80.3034 92.8646 81.6758C92.4809 82.0595 92.1267 82.421 91.8021 82.7604C91.4774 83.0851 91.197 83.3655 90.9609 83.6016C90.7101 83.8377 90.5109 84.0221 90.3633 84.1549C90.2157 84.3025 90.1419 84.3763 90.1419 84.3763L89.8542 84.1107ZM142.725 79.0195C142.754 79.0786 142.769 79.1302 142.769 79.1745C142.769 79.204 142.754 79.2483 142.725 79.3073C142.193 79.7943 141.574 80.3181 140.865 80.8789C140.172 81.4397 139.434 81.9635 138.652 82.4505C137.884 82.9227 137.095 83.3212 136.283 83.6458C135.472 83.9557 134.682 84.1107 133.915 84.1107C133.693 84.1107 133.442 84.0885 133.162 84.0443C132.896 84.0148 132.638 83.9484 132.387 83.8451C132.151 83.727 131.952 83.572 131.79 83.3802C131.627 83.1884 131.546 82.9449 131.546 82.6497C131.546 82.207 131.812 81.661 132.343 81.0117C131.044 82.0595 129.834 82.8859 128.713 83.4909C127.606 84.0959 126.588 84.3984 125.658 84.3984C125.186 84.3984 124.729 84.3247 124.286 84.1771C123.858 84.0295 123.474 83.8155 123.135 83.5352C122.81 83.2548 122.552 82.9154 122.36 82.5169C122.168 82.1185 122.072 81.661 122.072 81.1445C122.072 79.6541 123.12 78.0161 125.215 76.2305C126.632 75.0352 128.064 74.1128 129.51 73.4635C130.971 72.7995 132.35 72.4674 133.649 72.4674C134.269 72.4674 134.83 72.5412 135.331 72.6888C135.361 72.6888 135.472 72.7257 135.663 72.7995C135.87 72.8733 136.084 72.9987 136.305 73.1758C136.541 73.3381 136.748 73.5595 136.925 73.8398C137.117 74.1055 137.213 74.4449 137.213 74.8581C137.213 75.8763 136.564 77.0642 135.265 78.4219C135.796 78.0677 136.305 77.7283 136.792 77.4036C137.294 77.0642 137.729 76.7691 138.098 76.5182C138.482 76.2674 138.792 76.0681 139.028 75.9206C139.264 75.773 139.397 75.6992 139.426 75.6992C139.441 75.6845 139.471 75.6771 139.515 75.6771C139.648 75.6771 139.714 75.7435 139.714 75.8763C139.714 75.9206 139.633 75.9944 139.471 76.0977C139.323 76.1862 139.08 76.3338 138.74 76.5404C138.416 76.7322 137.995 76.9978 137.479 77.3372C136.977 77.6766 136.379 78.0972 135.686 78.599C134.446 79.4991 133.509 80.296 132.874 80.9896C132.255 81.6832 131.945 82.2439 131.945 82.6719C131.945 82.8785 132.011 83.0556 132.144 83.2031C132.291 83.3359 132.461 83.4392 132.653 83.513C132.86 83.5868 133.074 83.6385 133.295 83.668C133.516 83.6975 133.715 83.7122 133.893 83.7122C134.557 83.7122 135.25 83.5794 135.973 83.3138C136.711 83.0334 137.449 82.6719 138.187 82.2292C138.939 81.7865 139.677 81.2847 140.4 80.724C141.123 80.1632 141.802 79.5877 142.437 78.9974C142.496 78.9679 142.54 78.9531 142.57 78.9531C142.629 78.9531 142.68 78.9753 142.725 79.0195ZM125.658 84C126.278 84 126.913 83.8746 127.562 83.6237C128.211 83.3581 128.853 83.0187 129.488 82.6055C130.137 82.1923 130.771 81.7422 131.391 81.2552C132.011 80.7682 132.601 80.2886 133.162 79.8164C133.9 79.2114 134.505 78.658 134.977 78.1562C135.449 77.6545 135.826 77.197 136.106 76.7839C136.387 76.3707 136.578 76.0091 136.682 75.6992C136.785 75.3746 136.837 75.0942 136.837 74.8581C136.837 74.5187 136.755 74.2383 136.593 74.0169C136.431 73.7808 136.246 73.5964 136.04 73.4635C135.848 73.316 135.663 73.2127 135.486 73.1536C135.324 73.0946 135.235 73.0651 135.221 73.0651C134.734 72.9323 134.21 72.8659 133.649 72.8659C132.395 72.8659 131.067 73.1905 129.665 73.8398C128.263 74.4744 126.868 75.3746 125.481 76.5404C123.474 78.2374 122.471 79.7721 122.471 81.1445C122.471 81.5872 122.559 81.9857 122.736 82.3398C122.899 82.694 123.12 82.9965 123.4 83.2474C123.696 83.4835 124.035 83.668 124.419 83.8008C124.817 83.9336 125.23 84 125.658 84ZM138.596 83.9115C138.567 83.941 138.655 83.8229 138.862 83.5573C139.054 83.2917 139.319 82.9375 139.659 82.4948C139.984 82.0373 140.36 81.5135 140.788 80.9232C141.216 80.3181 141.651 79.6836 142.094 79.0195C142.728 78.0751 143.237 77.2782 143.621 76.6289C144.005 75.9648 144.3 75.4115 144.507 74.9688C144.728 74.526 144.875 74.1793 144.949 73.9284C145.023 73.6775 145.06 73.4857 145.06 73.3529C145.06 73.2643 145.045 73.2053 145.016 73.1758C145.001 73.1315 144.993 73.0872 144.993 73.043C144.993 72.9102 145.06 72.8438 145.193 72.8438C145.355 72.8438 145.436 73.0061 145.436 73.3307C145.436 73.6554 145.23 74.2678 144.816 75.168C144.403 76.0534 143.702 77.2708 142.714 78.8203C144.602 76.7986 146.44 75.2713 148.225 74.2383C150.026 73.2053 151.708 72.6888 153.272 72.6888C154.172 72.6888 154.888 72.8364 155.419 73.1315C155.951 73.4119 156.216 73.8546 156.216 74.4596C156.216 74.7548 156.157 75.0573 156.039 75.3672C155.921 75.6623 155.788 75.9353 155.641 76.1862C155.493 76.4371 155.36 76.6437 155.242 76.806C155.124 76.9536 155.058 77.0347 155.043 77.0495C155.043 77.0495 154.991 77.1159 154.888 77.2487C154.799 77.3668 154.674 77.5291 154.512 77.7357C154.349 77.9423 154.165 78.1784 153.958 78.444C153.766 78.7096 153.575 78.9974 153.383 79.3073C152.483 80.7092 152.033 81.7865 152.033 82.5391C152.033 82.849 152.128 83.1146 152.32 83.3359C152.512 83.5425 152.822 83.6458 153.25 83.6458C153.752 83.6458 154.379 83.4687 155.132 83.1146C155.899 82.7604 156.792 82.2292 157.81 81.5208C158.282 81.1962 158.725 80.8715 159.138 80.5469C159.566 80.2222 159.942 79.9271 160.267 79.6615C160.592 79.3958 160.842 79.1819 161.02 79.0195C161.211 78.8424 161.307 78.7539 161.307 78.7539C161.366 78.7244 161.411 78.7096 161.44 78.7096C161.573 78.7096 161.639 78.776 161.639 78.9089C161.639 78.9679 161.617 79.0195 161.573 79.0638C161.248 79.3589 160.894 79.6615 160.51 79.9714C160.186 80.237 159.809 80.5395 159.382 80.8789C158.968 81.2036 158.526 81.5282 158.053 81.8529C155.987 83.299 154.386 84.0221 153.25 84.0221C152.734 84.0221 152.335 83.8819 152.055 83.6016C151.774 83.3212 151.634 82.967 151.634 82.5391C151.634 81.6832 152.106 80.5321 153.051 79.0859C153.257 78.7908 153.457 78.503 153.648 78.2227C153.855 77.9423 154.039 77.6988 154.202 77.4922C154.394 77.2413 154.578 77.0126 154.755 76.806C154.947 76.5551 155.124 76.2969 155.286 76.0312C155.419 75.8099 155.537 75.559 155.641 75.2786C155.759 74.9983 155.818 74.7326 155.818 74.4818C155.818 73.5668 154.962 73.1094 153.25 73.1094C152.35 73.1094 151.457 73.2717 150.572 73.5964C149.686 73.9062 148.83 74.3121 148.004 74.8138C147.178 75.3155 146.388 75.8911 145.635 76.5404C144.883 77.1749 144.189 77.8168 143.555 78.4661C142.92 79.1155 142.352 79.7426 141.85 80.3477C141.349 80.9527 140.928 81.4692 140.589 81.8971C140.367 82.1923 140.161 82.4727 139.969 82.7383C139.762 83.0039 139.585 83.24 139.438 83.4466C139.275 83.6532 139.15 83.8229 139.061 83.9557C138.973 84.0885 138.928 84.1549 138.928 84.1549L138.596 83.9115ZM127.003 122.354C126.723 122.015 126.531 121.646 126.427 121.247C126.309 120.849 126.25 120.443 126.25 120.03C126.25 119.853 126.272 119.624 126.317 119.344C126.346 119.063 126.398 118.79 126.472 118.525C126.545 118.244 126.634 118.008 126.737 117.816C126.841 117.61 126.951 117.507 127.069 117.507C127.202 117.507 127.269 117.58 127.269 117.728C127.269 117.772 127.261 117.802 127.246 117.816C127.04 118.112 126.892 118.451 126.804 118.835C126.7 119.218 126.649 119.617 126.649 120.03C126.649 120.561 126.737 121.019 126.914 121.402C127.077 121.771 127.298 122.074 127.578 122.31C127.859 122.561 128.183 122.738 128.552 122.841C128.907 122.959 129.275 123.018 129.659 123.018C131.356 123.018 133.112 122.251 134.927 120.716C136.743 119.181 138.727 116.953 140.882 114.031C141.62 113.043 142.365 112.046 143.118 111.043C143.885 110.039 144.645 109.08 145.397 108.165C146.15 107.236 146.888 106.372 147.611 105.576C148.349 104.764 149.057 104.063 149.736 103.473C150.415 102.882 151.064 102.418 151.684 102.078C152.304 101.739 152.872 101.569 153.388 101.569C153.669 101.569 153.89 101.635 154.052 101.768C154.229 101.886 154.318 102.071 154.318 102.322C154.318 102.513 154.185 102.875 153.92 103.406C153.669 103.923 153.344 104.557 152.946 105.31C152.547 106.062 152.104 106.911 151.618 107.855C151.131 108.785 150.658 109.759 150.201 110.777C149.817 111.604 149.448 112.46 149.094 113.345C148.755 114.216 148.452 115.086 148.187 115.957C147.921 116.813 147.707 117.654 147.545 118.48C147.397 119.307 147.323 120.082 147.323 120.805C147.323 120.952 147.331 121.107 147.345 121.27C147.36 121.432 147.39 121.587 147.434 121.734C147.493 121.867 147.567 121.978 147.655 122.066C147.744 122.155 147.854 122.199 147.987 122.199C148.356 122.199 148.747 121.889 149.16 121.27C149.588 120.65 150.075 119.831 150.621 118.812C151.182 117.794 151.831 116.621 152.569 115.293C153.307 113.965 154.178 112.592 155.181 111.176C156.273 109.626 157.314 108.335 158.302 107.302C159.291 106.254 160.162 105.413 160.914 104.779C161.667 104.129 162.279 103.664 162.752 103.384C163.224 103.089 163.489 102.927 163.549 102.897C163.578 102.868 163.667 102.809 163.814 102.72C163.976 102.632 164.176 102.521 164.412 102.388C164.028 101.901 163.762 101.488 163.615 101.148C163.467 100.794 163.386 100.588 163.371 100.529V100.484C163.371 100.44 163.386 100.396 163.416 100.352C163.46 100.307 163.519 100.285 163.593 100.285C163.622 100.285 163.689 100.374 163.792 100.551C163.895 100.713 164.006 100.905 164.124 101.126C164.242 101.348 164.36 101.562 164.478 101.768C164.596 101.975 164.692 102.115 164.766 102.189C165.046 102.056 165.349 101.916 165.674 101.768C165.998 101.621 166.33 101.488 166.67 101.37C167.024 101.237 167.385 101.134 167.754 101.06C168.123 100.971 168.499 100.927 168.883 100.927C169.636 100.927 170.211 101.089 170.61 101.414C171.023 101.724 171.229 102.137 171.229 102.654C171.229 102.993 171.148 103.281 170.986 103.517C170.838 103.738 170.647 103.923 170.41 104.07C170.189 104.203 169.938 104.299 169.658 104.358C169.392 104.417 169.141 104.447 168.905 104.447C168.079 104.447 167.297 104.299 166.559 104.004C165.836 103.694 165.209 103.259 164.677 102.698C164.279 102.919 163.785 103.207 163.194 103.561C162.619 103.901 161.947 104.395 161.18 105.044C160.427 105.679 159.572 106.505 158.612 107.523C157.668 108.542 156.635 109.84 155.513 111.419C154.436 112.924 153.521 114.356 152.769 115.714C152.016 117.071 151.359 118.259 150.799 119.277C150.238 120.296 149.736 121.107 149.293 121.712C148.865 122.303 148.43 122.598 147.987 122.598C147.736 122.598 147.537 122.524 147.39 122.376C147.257 122.229 147.154 122.052 147.08 121.845C147.006 121.638 146.962 121.417 146.947 121.181C146.932 120.945 146.925 120.738 146.925 120.561C146.954 119.558 147.109 118.495 147.39 117.374C147.67 116.252 148.017 115.123 148.43 113.987C148.858 112.851 149.323 111.729 149.825 110.622C150.341 109.516 150.843 108.483 151.33 107.523C151.817 106.549 152.267 105.679 152.68 104.911C153.108 104.129 153.447 103.495 153.698 103.008C153.846 102.757 153.92 102.543 153.92 102.366C153.92 102.1 153.743 101.967 153.388 101.967C152.695 101.967 151.876 102.329 150.931 103.052C149.987 103.76 148.976 104.697 147.899 105.863C146.836 107.029 145.729 108.342 144.578 109.803C143.442 111.264 142.321 112.747 141.214 114.253C140.122 115.714 139.081 117.02 138.093 118.171C137.104 119.307 136.137 120.266 135.193 121.048C134.249 121.83 133.319 122.421 132.404 122.819C131.489 123.217 130.574 123.417 129.659 123.417C129.128 123.417 128.634 123.336 128.176 123.173C127.719 123.011 127.328 122.738 127.003 122.354ZM168.905 104.048C169.127 104.048 169.348 104.026 169.569 103.982C169.805 103.937 170.012 103.864 170.189 103.76C170.381 103.642 170.529 103.495 170.632 103.318C170.75 103.141 170.809 102.919 170.809 102.654C170.809 102.226 170.617 101.901 170.233 101.68C169.864 101.444 169.414 101.326 168.883 101.326C168.544 101.326 168.204 101.362 167.865 101.436C167.526 101.51 167.186 101.606 166.847 101.724C166.522 101.842 166.205 101.967 165.895 102.1C165.585 102.233 165.297 102.366 165.032 102.499C165.622 103.059 166.242 103.458 166.891 103.694C167.54 103.93 168.212 104.048 168.905 104.048ZM155.469 121.712C154.953 121.432 154.591 121.063 154.384 120.605C154.163 120.148 154.052 119.646 154.052 119.1C154.052 118.672 154.111 118.23 154.229 117.772C154.333 117.315 154.48 116.879 154.672 116.466C154.864 116.038 155.078 115.647 155.314 115.293C155.55 114.924 155.794 114.607 156.045 114.341C155.808 114.223 155.631 114.135 155.513 114.076C155.41 114.016 155.344 113.972 155.314 113.943C155.285 113.898 155.27 113.869 155.27 113.854C155.285 113.839 155.292 113.817 155.292 113.788C155.292 113.655 155.358 113.589 155.491 113.589C155.55 113.589 155.572 113.589 155.558 113.589C155.543 113.574 155.543 113.581 155.558 113.611C155.572 113.625 155.624 113.662 155.713 113.721C155.816 113.78 156.022 113.884 156.332 114.031C157.572 112.703 158.863 111.648 160.206 110.866C161.564 110.084 162.87 109.693 164.124 109.693C164.552 109.693 164.965 109.752 165.364 109.87C165.762 109.988 166.116 110.158 166.426 110.379C166.736 110.586 166.979 110.844 167.157 111.154C167.348 111.449 167.444 111.781 167.444 112.15C167.444 112.77 167.252 113.316 166.869 113.788C166.5 114.26 166.035 114.651 165.474 114.961C164.928 115.271 164.338 115.507 163.703 115.669C163.069 115.817 162.486 115.891 161.955 115.891C161.305 115.891 160.686 115.839 160.095 115.736C159.505 115.618 158.966 115.492 158.479 115.359C158.007 115.212 157.594 115.064 157.24 114.917C156.886 114.754 156.613 114.629 156.421 114.54C156.2 114.747 155.971 115.027 155.735 115.382C155.499 115.721 155.285 116.097 155.093 116.51C154.916 116.909 154.761 117.337 154.628 117.794C154.51 118.237 154.451 118.672 154.451 119.1C154.451 119.941 154.739 120.613 155.314 121.115C155.904 121.616 156.812 121.867 158.037 121.867C158.509 121.867 158.989 121.838 159.476 121.779C159.963 121.705 160.427 121.624 160.87 121.535C161.313 121.432 161.711 121.329 162.065 121.225C162.42 121.107 162.707 121.004 162.929 120.915C163.519 120.679 164.095 120.428 164.655 120.163C165.231 119.882 165.806 119.572 166.382 119.233C166.972 118.894 167.577 118.503 168.197 118.06C168.817 117.602 169.481 117.071 170.189 116.466C170.248 116.437 170.292 116.422 170.322 116.422C170.366 116.422 170.41 116.437 170.455 116.466C170.499 116.496 170.521 116.547 170.521 116.621C170.521 116.68 170.499 116.732 170.455 116.776C169.732 117.396 169.053 117.934 168.418 118.392C167.784 118.835 167.171 119.233 166.581 119.587C165.991 119.927 165.408 120.229 164.832 120.495C164.257 120.76 163.667 121.019 163.062 121.27C162.737 121.388 162.375 121.506 161.977 121.624C161.578 121.742 161.158 121.845 160.715 121.934C160.287 122.022 159.845 122.096 159.387 122.155C158.93 122.214 158.479 122.243 158.037 122.243C157.565 122.243 157.107 122.199 156.664 122.111C156.222 122.037 155.823 121.904 155.469 121.712ZM157.284 114.496C157.52 114.599 157.801 114.71 158.125 114.828C158.465 114.946 158.834 115.057 159.232 115.16C159.631 115.249 160.058 115.33 160.516 115.404C160.973 115.463 161.438 115.492 161.91 115.492C162.516 115.492 163.121 115.404 163.726 115.227C164.331 115.049 164.877 114.813 165.364 114.518C165.851 114.223 166.249 113.876 166.559 113.478C166.869 113.065 167.024 112.637 167.024 112.194C167.024 111.884 166.943 111.604 166.78 111.353C166.633 111.087 166.426 110.859 166.16 110.667C165.895 110.475 165.585 110.327 165.231 110.224C164.891 110.121 164.537 110.069 164.168 110.069C163.696 110.069 163.18 110.135 162.619 110.268C162.073 110.401 161.483 110.63 160.848 110.954C160.228 111.264 159.564 111.685 158.856 112.216C158.162 112.747 157.439 113.419 156.687 114.23L157.284 114.496ZM186.735 117.241C186.765 117.3 186.78 117.337 186.78 117.352C186.78 117.411 186.75 117.47 186.691 117.529C186.676 117.529 186.477 117.676 186.093 117.971C185.71 118.266 185.193 118.635 184.544 119.078C183.895 119.506 183.135 119.964 182.264 120.451C181.408 120.923 180.493 121.336 179.519 121.69C179.062 121.852 178.597 122.044 178.125 122.266C177.667 122.487 177.217 122.708 176.774 122.93C175.963 124.081 175.129 125.21 174.273 126.316C173.432 127.438 172.606 128.478 171.794 129.438C170.982 130.411 170.215 131.282 169.492 132.049C168.769 132.817 168.134 133.437 167.588 133.909C167.573 133.924 167.478 133.997 167.3 134.13C167.123 134.278 166.902 134.433 166.636 134.595C166.371 134.757 166.076 134.905 165.751 135.038C165.426 135.171 165.109 135.237 164.799 135.237C164.622 135.237 164.452 135.207 164.29 135.148C164.113 135.104 163.951 135.023 163.803 134.905C163.655 134.802 163.537 134.661 163.449 134.484C163.36 134.322 163.316 134.13 163.316 133.909C163.316 133.437 163.515 132.898 163.914 132.293C164.297 131.688 164.821 131.053 165.485 130.389C166.135 129.725 166.902 129.039 167.787 128.331C168.658 127.637 169.58 126.951 170.554 126.272C171.528 125.593 172.524 124.944 173.543 124.324C174.576 123.704 175.564 123.144 176.509 122.642C176.878 122.096 177.239 121.572 177.593 121.07C177.962 120.569 178.368 120.067 178.811 119.565C177.571 120.495 176.465 121.211 175.491 121.712C174.531 122.214 173.609 122.465 172.724 122.465C172.251 122.465 171.794 122.384 171.351 122.221C170.923 122.074 170.547 121.86 170.222 121.579C169.898 121.284 169.639 120.938 169.448 120.539C169.256 120.141 169.16 119.691 169.16 119.189C169.16 117.698 170.2 116.068 172.281 114.297C173.757 113.043 175.195 112.098 176.597 111.464C177.999 110.829 179.342 110.512 180.626 110.512C180.965 110.512 181.342 110.541 181.755 110.6C182.183 110.659 182.581 110.777 182.95 110.954C183.334 111.132 183.651 111.382 183.902 111.707C184.168 112.017 184.3 112.423 184.3 112.924C184.3 113.839 183.769 114.895 182.707 116.09C183.238 115.736 183.769 115.389 184.3 115.049C184.846 114.695 185.422 114.371 186.027 114.076C186.042 114.076 186.049 114.076 186.049 114.076C186.064 114.061 186.086 114.053 186.116 114.053C186.16 114.053 186.204 114.076 186.248 114.12C186.293 114.149 186.315 114.194 186.315 114.253C186.315 114.341 186.278 114.408 186.204 114.452C186.234 114.452 186.108 114.518 185.828 114.651C185.562 114.769 185.193 114.961 184.721 115.227C184.264 115.477 183.725 115.809 183.105 116.223C182.485 116.636 181.836 117.138 181.157 117.728C180.493 118.303 179.822 118.967 179.143 119.72C178.479 120.458 177.852 121.299 177.261 122.243C177.616 122.081 177.97 121.926 178.324 121.779C178.678 121.616 179.025 121.469 179.364 121.336C179.94 121.129 180.515 120.886 181.091 120.605C181.666 120.31 182.212 120.015 182.729 119.72C183.26 119.41 183.747 119.108 184.19 118.812C184.647 118.517 185.038 118.252 185.363 118.016C185.702 117.78 185.968 117.588 186.16 117.44C186.352 117.293 186.448 117.219 186.448 117.219C186.507 117.189 186.551 117.174 186.58 117.174C186.639 117.174 186.691 117.197 186.735 117.241ZM172.724 122.066C173.343 122.066 173.978 121.941 174.627 121.69C175.291 121.424 175.941 121.085 176.575 120.672C177.225 120.259 177.859 119.809 178.479 119.322C179.099 118.835 179.689 118.355 180.25 117.883C180.973 117.278 181.57 116.724 182.043 116.223C182.515 115.706 182.891 115.249 183.172 114.85C183.452 114.437 183.644 114.076 183.747 113.766C183.85 113.441 183.902 113.161 183.902 112.924C183.902 112.511 183.791 112.179 183.57 111.928C183.349 111.663 183.068 111.456 182.729 111.309C182.404 111.161 182.05 111.058 181.666 110.999C181.297 110.94 180.951 110.91 180.626 110.91C179.386 110.91 178.088 111.227 176.73 111.862C175.373 112.482 173.978 113.389 172.547 114.585C171.573 115.426 170.827 116.237 170.311 117.02C169.809 117.787 169.558 118.503 169.558 119.167C169.558 119.609 169.639 120.008 169.802 120.362C169.964 120.716 170.185 121.019 170.466 121.27C170.761 121.52 171.1 121.72 171.484 121.867C171.868 122 172.281 122.066 172.724 122.066ZM167.323 133.621C167.869 133.149 168.481 132.559 169.16 131.85C169.824 131.142 170.525 130.345 171.263 129.46C172.015 128.574 172.79 127.615 173.587 126.582C174.384 125.549 175.181 124.472 175.978 123.35C175.151 123.808 174.273 124.332 173.343 124.922C172.414 125.512 171.491 126.132 170.576 126.781C169.676 127.431 168.813 128.095 167.987 128.773C167.146 129.467 166.415 130.124 165.795 130.743C165.161 131.378 164.659 131.961 164.29 132.492C163.906 133.038 163.715 133.503 163.715 133.887C163.715 134.064 163.751 134.211 163.825 134.329C163.899 134.462 163.988 134.566 164.091 134.639C164.194 134.713 164.312 134.765 164.445 134.794C164.563 134.839 164.674 134.861 164.777 134.861C165.043 134.861 165.323 134.802 165.618 134.684C165.899 134.566 166.164 134.433 166.415 134.285C166.651 134.138 166.858 133.997 167.035 133.865C167.197 133.732 167.293 133.651 167.323 133.621ZM187.41 121.911C187.16 121.911 186.909 121.897 186.658 121.867C186.407 121.838 186.186 121.771 185.994 121.668C185.787 121.55 185.625 121.388 185.507 121.181C185.389 120.974 185.33 120.701 185.33 120.362C185.33 119.919 185.433 119.447 185.64 118.945C185.831 118.429 186.082 117.912 186.392 117.396C186.687 116.879 187.005 116.378 187.344 115.891C187.683 115.404 187.993 114.961 188.274 114.562C188.672 113.987 189.063 113.441 189.447 112.924C189.845 112.408 190.2 111.951 190.509 111.552C190.834 111.154 191.092 110.836 191.284 110.6C191.491 110.364 191.594 110.246 191.594 110.246C191.609 110.202 191.66 110.18 191.749 110.18C191.882 110.18 191.948 110.246 191.948 110.379C191.948 110.408 191.933 110.453 191.904 110.512C191.904 110.512 191.801 110.63 191.594 110.866C191.402 111.102 191.144 111.419 190.819 111.818C190.509 112.201 190.155 112.651 189.757 113.168C189.373 113.684 188.982 114.223 188.584 114.784C188.318 115.153 188.023 115.573 187.698 116.046C187.374 116.518 187.064 117.005 186.769 117.507C186.473 118.008 186.23 118.51 186.038 119.012C185.831 119.499 185.728 119.949 185.728 120.362C185.728 120.628 185.78 120.842 185.883 121.004C185.986 121.151 186.119 121.262 186.282 121.336C186.444 121.41 186.621 121.461 186.813 121.491C187.019 121.506 187.219 121.513 187.41 121.513C188.045 121.513 188.739 121.388 189.491 121.137C190.244 120.871 190.996 120.532 191.749 120.118C192.516 119.691 193.269 119.211 194.007 118.68C194.759 118.148 195.453 117.602 196.088 117.042C196.147 117.012 196.191 116.997 196.22 116.997C196.353 116.997 196.42 117.064 196.42 117.197C196.42 117.256 196.397 117.307 196.353 117.352C195.689 117.912 194.988 118.466 194.25 119.012C193.527 119.558 192.782 120.045 192.015 120.473C191.247 120.901 190.473 121.247 189.69 121.513C188.923 121.779 188.163 121.911 187.41 121.911ZM194.804 107.413C194.804 107.708 194.7 107.966 194.494 108.188C194.287 108.394 194.036 108.497 193.741 108.497C193.446 108.497 193.188 108.394 192.966 108.188C192.76 107.966 192.657 107.708 192.657 107.413C192.657 107.118 192.76 106.867 192.966 106.66C193.188 106.454 193.446 106.35 193.741 106.35C194.036 106.35 194.287 106.454 194.494 106.66C194.7 106.867 194.804 107.118 194.804 107.413Z" fill="white"/>
<defs>
<linearGradient id="paint0_linear_2_2" x1="50" y1="97" x2="210" y2="97" gradientUnits="userSpaceOnUse">
<stop stop-color="#459CED"/>
<stop offset="0.783371" stop-color="#156A9A"/>
</linearGradient>
</defs>
</svg>
