<svg width="90" height="74" viewBox="0 0 90 74" fill="none" xmlns="http://www.w3.org/2000/svg">
<g id="tradeicon">
<path d="M85.6566 43.5016C86.8391 41.3092 87.5163 38.8168 87.5163 36.1667C87.5163 29.4311 83.1832 23.6975 77.0966 21.438C77.0966 21.4309 77.0977 21.4238 77.0977 21.4156C77.0977 9.61681 67.3021 0.052002 55.2186 0.052002C45.025 0.052002 36.4849 6.86904 34.0553 16.0819C32.5175 15.5885 30.8787 15.3117 29.1721 15.3117C21.1581 15.3117 14.5621 21.2051 13.6588 28.7932C8.23695 29.9133 4.16744 34.6092 4.16744 40.236C4.16744 46.697 9.53198 51.9351 16.1488 51.9351C16.3332 51.9351 16.5156 51.9229 16.6969 51.9127C16.6927 52.0908 16.6698 52.2647 16.6698 52.4438C16.6698 63.9618 26.232 73.2988 38.0279 73.2988C44.7344 73.2988 50.7126 70.2753 54.6289 65.5529C56.8981 67.8164 60.0528 69.2295 63.5535 69.2295C68.3981 69.2295 72.5906 66.5336 74.666 62.5986C75.762 62.9394 76.9278 63.1256 78.1395 63.1256C84.4688 63.1256 89.6 58.1153 89.6 51.9351C89.6 48.5668 88.0685 45.5535 85.6566 43.5016Z" fill="#C7EDE6"/>
<path d="M78.0093 47.3572C78.0093 47.3572 81.8017 47.3572 84.3907 47.3572C86.9797 47.3572 89.0791 45.3073 89.0791 42.7793C89.0791 40.4059 87.2225 38.477 84.8543 38.2471C84.8772 38.063 84.9116 37.8829 84.9116 37.6927C84.9116 35.1647 82.8123 33.1148 80.2233 33.1148C78.7251 33.1148 77.4071 33.8126 76.5486 34.8808C76.4028 32.1992 74.1503 30.0628 71.3674 30.0628C68.4909 30.0628 66.1581 32.3406 66.1581 35.1494C66.1581 35.6031 66.2384 36.0345 66.353 36.4536C65.6841 35.6632 64.685 35.1494 63.5535 35.1494C61.6979 35.1494 60.1841 36.5075 59.9539 38.2573C59.7653 38.2349 59.5809 38.2014 59.386 38.2014C56.797 38.2014 54.6977 40.2512 54.6977 42.7793C54.6977 45.3073 56.797 47.3572 59.386 47.3572C61.9751 47.3572 69.2837 47.3572 69.2837 47.3572H74.8837V47.8659H78.0093V47.3572Z" fill="#FDFCEF"/>
<path d="M71.3674 29.5542C68.2075 29.5542 65.6372 32.0639 65.6372 35.1494C65.6372 35.1657 65.6372 35.1809 65.6372 35.1972C65.01 34.8361 64.2932 34.6407 63.5535 34.6407C61.6458 34.6407 59.9997 35.9236 59.534 37.6978C59.485 37.6947 59.4361 37.6927 59.386 37.6927C56.5136 37.6927 54.1767 39.9745 54.1767 42.7793C54.1767 45.584 56.5136 47.8659 59.386 47.8659H74.8837C75.1713 47.8659 75.4046 47.638 75.4046 47.3572C75.4046 47.0764 75.1713 46.8485 74.8837 46.8485H59.386C57.0877 46.8485 55.2186 45.0235 55.2186 42.7793C55.2186 40.5351 57.0877 38.71 59.386 38.71C59.5079 38.71 59.6257 38.7273 59.7434 38.7426L59.8903 38.7619C59.9122 38.7649 59.933 38.766 59.9549 38.766C60.2112 38.766 60.4362 38.5778 60.4706 38.3214C60.6696 36.8025 61.9949 35.6581 63.5535 35.6581C64.4755 35.6581 65.3486 36.066 65.9508 36.7771C66.0529 36.8972 66.2019 36.9623 66.353 36.9623C66.4342 36.9623 66.5155 36.944 66.5905 36.9053C66.8083 36.7964 66.9177 36.5533 66.8551 36.3224C66.7353 35.8798 66.6791 35.5075 66.6791 35.1494C66.6791 32.6254 68.7826 30.5715 71.3674 30.5715C73.8481 30.5715 75.8964 32.4759 76.0287 34.9083C76.0402 35.1199 76.185 35.302 76.3923 35.3661C76.4444 35.3824 76.4976 35.3905 76.5507 35.3905C76.707 35.3905 76.8591 35.3203 76.9591 35.1952C77.7624 34.1962 78.9511 33.6234 80.2233 33.6234C82.5216 33.6234 84.3907 35.4485 84.3907 37.6927C84.3907 37.8117 84.373 37.9267 84.3574 38.0416L84.3376 38.1851C84.3209 38.3214 84.3605 38.4577 84.448 38.5645C84.5355 38.6713 84.6637 38.7395 84.8022 38.7527C86.9443 38.9613 88.5581 40.6928 88.5581 42.7793C88.5581 45.0235 86.689 46.8485 84.3907 46.8485H78.0093C77.7217 46.8485 77.4884 47.0764 77.4884 47.3572C77.4884 47.638 77.7217 47.8659 78.0093 47.8659H84.3907C87.2631 47.8659 89.6 45.584 89.6 42.7793C89.6 40.3408 87.8403 38.2899 85.4294 37.8178C85.4315 37.7761 85.4326 37.7344 85.4326 37.6927C85.4326 34.888 83.0957 32.6061 80.2233 32.6061C78.998 32.6061 77.8343 33.0293 76.907 33.7903C76.284 31.3446 74.0294 29.5542 71.3674 29.5542Z" fill="#472B29"/>
<path d="M69.8046 36.6754C68.3429 36.6754 67.0864 37.6917 66.7697 39.0569C66.3873 38.8311 65.9508 38.71 65.507 38.71C64.2547 38.71 63.217 39.6225 63.0555 40.8138C62.844 40.767 62.6429 40.7446 62.447 40.7446C60.854 40.7446 59.5184 41.9654 59.4069 43.5239C59.3965 43.6643 59.5048 43.7864 59.6476 43.7966C59.6538 43.7966 59.6601 43.7966 59.6663 43.7966C59.8018 43.7966 59.9164 43.6938 59.9257 43.5606C60.0185 42.2676 61.1249 41.2533 62.446 41.2533C62.6846 41.2533 62.9357 41.296 63.2149 41.3825C63.2378 41.3896 63.2618 41.3927 63.2847 41.3927C63.342 41.3927 63.3993 41.3723 63.4472 41.3377C63.5139 41.2909 63.5535 41.2075 63.5535 41.1261C63.5535 40.0742 64.4297 39.2187 65.507 39.2187C65.9727 39.2187 66.429 39.3896 66.7895 39.6999C66.8385 39.7416 66.8999 39.7639 66.9614 39.7639C66.9948 39.7639 67.027 39.7578 67.0583 39.7446C67.15 39.709 67.2125 39.6256 67.2198 39.5289C67.3281 38.2136 68.4627 37.184 69.8046 37.184C70.0214 37.184 70.2474 37.2186 70.5152 37.2929C70.5392 37.3 70.5642 37.3031 70.5881 37.3031C70.7017 37.3031 70.8038 37.2288 70.8371 37.1179C70.8767 36.9826 70.7965 36.8422 70.6579 36.8036C70.3433 36.7161 70.0714 36.6754 69.8046 36.6754Z" fill="#472B29"/>
<path d="M84.2688 38.2014C82.8873 38.2014 81.6558 39.1139 81.2745 40.4211C81.2349 40.5564 81.3151 40.6968 81.4537 40.7355C81.4787 40.7416 81.5027 40.7446 81.5256 40.7446C81.6391 40.7446 81.7433 40.6714 81.7756 40.5595C82.0934 39.471 83.1186 38.71 84.2688 38.71C84.3907 38.71 84.5084 38.7243 84.6251 38.7395C84.6376 38.7415 84.6491 38.7426 84.6616 38.7426C84.7877 38.7426 84.9002 38.649 84.9179 38.5218C84.9377 38.3824 84.8377 38.2543 84.6949 38.2359C84.5553 38.2176 84.4136 38.2014 84.2688 38.2014Z" fill="#472B29"/>
<path d="M10.8406 37.6927H0.52093C0.233377 37.6927 0 37.4648 0 37.184C0 36.9033 0.233377 36.6754 0.52093 36.6754H10.8406C11.1281 36.6754 11.3615 36.9033 11.3615 37.184C11.3615 37.4648 11.1292 37.6927 10.8406 37.6927Z" fill="white"/>
<path d="M14.0651 37.6927H13.0233C12.7357 37.6927 12.5023 37.4648 12.5023 37.184C12.5023 36.9033 12.7357 36.6754 13.0233 36.6754H14.0651C14.3527 36.6754 14.586 36.9033 14.586 37.184C14.586 37.4648 14.3537 37.6927 14.0651 37.6927Z" fill="white"/>
<path d="M19.265 39.7273H9.89767C9.61012 39.7273 9.37674 39.4994 9.37674 39.2187C9.37674 38.9379 9.61012 38.71 9.89767 38.71H19.265C19.5526 38.71 19.786 38.9379 19.786 39.2187C19.786 39.4994 19.5526 39.7273 19.265 39.7273Z" fill="white"/>
<path d="M7.81395 39.7273H6.77209C6.48454 39.7273 6.25116 39.4994 6.25116 39.2187C6.25116 38.9379 6.48454 38.71 6.77209 38.71H7.81395C8.10151 38.71 8.33488 38.9379 8.33488 39.2187C8.33488 39.4994 8.10255 39.7273 7.81395 39.7273Z" fill="white"/>
<path d="M4.68837 39.7273H2.60465C2.3171 39.7273 2.08372 39.4994 2.08372 39.2187C2.08372 38.9379 2.3171 38.71 2.60465 38.71H4.68837C4.97593 38.71 5.2093 38.9379 5.2093 39.2187C5.2093 39.4994 4.97697 39.7273 4.68837 39.7273Z" fill="white"/>
<path d="M10.9395 41.762H8.85581C8.56826 41.762 8.33488 41.5341 8.33488 41.2533C8.33488 40.9725 8.56826 40.7446 8.85581 40.7446H10.9395C11.2271 40.7446 11.4605 40.9725 11.4605 41.2533C11.4605 41.5341 11.2271 41.762 10.9395 41.762Z" fill="white"/>
<path d="M14.0651 32.6061C13.8807 32.6061 13.2077 32.6061 13.0233 32.6061C12.7357 32.6061 12.5023 32.834 12.5023 33.1148C12.5023 33.3955 12.7357 33.6234 13.0233 33.6234C13.2077 33.6234 13.8807 33.6234 14.0651 33.6234C14.3527 33.6234 14.586 33.3955 14.586 33.1148C14.586 32.834 14.3527 32.6061 14.0651 32.6061Z" fill="white"/>
<path d="M14.0651 34.6407C13.8807 34.6407 9.04022 34.6407 8.85581 34.6407C8.56826 34.6407 8.33488 34.8686 8.33488 35.1494C8.33488 35.4302 8.56826 35.6581 8.85581 35.6581C9.04022 35.6581 13.8807 35.6581 14.0651 35.6581C14.3527 35.6581 14.586 35.4302 14.586 35.1494C14.586 34.8686 14.3527 34.6407 14.0651 34.6407Z" fill="white"/>
<path d="M19.2744 36.6754C19.09 36.6754 16.3332 36.6754 16.1488 36.6754C15.8613 36.6754 15.6279 36.9033 15.6279 37.184C15.6279 37.4648 15.8613 37.6927 16.1488 37.6927C16.3332 37.6927 19.09 37.6927 19.2744 37.6927C19.562 37.6927 19.7953 37.4648 19.7953 37.184C19.7953 36.9033 19.562 36.6754 19.2744 36.6754Z" fill="white"/>
<path d="M70.3256 10.2252H59.907C59.6194 10.2252 59.386 9.99728 59.386 9.7165C59.386 9.43572 59.6194 9.20785 59.907 9.20785H70.3256C70.6131 9.20785 70.8465 9.43572 70.8465 9.7165C70.8465 9.99728 70.6131 10.2252 70.3256 10.2252Z" fill="white"/>
<path d="M74.493 10.2252H72.4093C72.1217 10.2252 71.8884 9.99728 71.8884 9.7165C71.8884 9.43572 72.1217 9.20785 72.4093 9.20785H74.493C74.7806 9.20785 75.014 9.43572 75.014 9.7165C75.014 9.99728 74.7806 10.2252 74.493 10.2252Z" fill="white"/>
<path d="M79.7023 12.2598H69.2837C68.9962 12.2598 68.7628 12.0319 68.7628 11.7511C68.7628 11.4704 68.9962 11.2425 69.2837 11.2425H79.7023C79.9899 11.2425 80.2233 11.4704 80.2233 11.7511C80.2233 12.0319 79.9909 12.2598 79.7023 12.2598Z" fill="white"/>
<path d="M67.2 12.2598H66.1581C65.8706 12.2598 65.6372 12.0319 65.6372 11.7511C65.6372 11.4704 65.8706 11.2425 66.1581 11.2425H67.2C67.4876 11.2425 67.7209 11.4704 67.7209 11.7511C67.7209 12.0319 67.4876 12.2598 67.2 12.2598Z" fill="white"/>
<path d="M63.9442 12.2598H61.9907C61.7031 12.2598 61.4698 12.0319 61.4698 11.7511C61.4698 11.4704 61.7031 11.2425 61.9907 11.2425H63.9442C64.2317 11.2425 64.4651 11.4704 64.4651 11.7511C64.4651 12.0319 64.2317 12.2598 63.9442 12.2598Z" fill="white"/>
<path d="M73.4512 8.19053H68.2419C67.9543 8.19053 67.7209 7.96265 67.7209 7.68187C67.7209 7.40109 67.9543 7.17321 68.2419 7.17321H73.4512C73.7387 7.17321 73.9721 7.40109 73.9721 7.68187C73.9721 7.96265 73.7398 8.19053 73.4512 8.19053Z" fill="white"/>
<path d="M70.3256 14.2944H68.2419C67.9543 14.2944 67.7209 14.0665 67.7209 13.7858C67.7209 13.505 67.9543 13.2771 68.2419 13.2771H70.3256C70.6131 13.2771 70.8465 13.505 70.8465 13.7858C70.8465 14.0665 70.6131 14.2944 70.3256 14.2944Z" fill="white"/>
<path d="M33.9969 58.3676C29.3305 58.3676 25.5339 54.6605 25.5339 50.104V23.2468C25.5339 18.6902 29.3305 14.9831 33.9969 14.9831H61.5021C66.1686 14.9831 69.9651 18.6902 69.9651 23.2468V50.104C69.9651 54.6605 66.1686 58.3676 61.5021 58.3676H33.9969Z" fill="#7E96AF"/>
<path d="M70.3172 29.7892L66.7916 32.543L63.9702 38.1261L61.1489 33.2318L58.3286 35.2979L56.1167 30.4402L55.5072 30.5572L55.0029 30.4759L52.7296 36.6754L50.5896 37.4089L47.7495 41.4954L44.9282 40.119L42.1068 33.2318L39.2865 38.6948L36.4651 37.3641L33.6438 40.8077L31.5288 41.5849L28.7074 40.119L25.8861 39.4303L25.5933 50.5333L27.0905 55.0949L30.6161 57.6789L33.5458 58.3676L62.8211 58.2984L66.2446 57.1834L69.2598 53.5974L69.9891 49.4539L70.3172 29.7892Z" fill="#CFD7E2"/>
<path d="M63.9702 38.6642C63.7827 38.6642 63.6087 38.5656 63.516 38.4048L60.9863 34.0171L58.6401 35.7344C58.513 35.8269 58.3504 35.8615 58.1962 35.8188C58.0431 35.7801 57.916 35.6743 57.8514 35.5339L55.6197 30.6325C55.503 30.3762 55.6208 30.075 55.8844 29.9611C56.1469 29.8492 56.4553 29.9631 56.572 30.2195L58.538 34.538L60.8363 32.8554C60.9561 32.7679 61.1103 32.7373 61.2562 32.7648C61.4031 32.7943 61.5292 32.8849 61.6031 33.013L63.94 37.066L66.3248 32.3477C66.3582 32.2816 66.4071 32.2226 66.4665 32.1758L69.9922 29.4209C70.2172 29.2459 70.5444 29.2825 70.7246 29.5002C70.9038 29.72 70.8673 30.0394 70.6433 30.2154L67.2083 32.9001L64.438 38.3814C64.3526 38.5503 64.1776 38.6591 63.9848 38.6642C63.9796 38.6642 63.9744 38.6642 63.9702 38.6642Z" fill="#472B29"/>
<path d="M31.5288 42.0936C31.4444 42.0936 31.36 42.0733 31.2839 42.0336L28.5188 40.5961L25.76 39.9237C25.4808 39.8555 25.311 39.5788 25.3808 39.3072C25.4495 39.0335 25.7329 38.8677 26.0121 38.9369L28.8335 39.6256C28.8752 39.6358 28.9148 39.65 28.9523 39.6704L31.5652 41.0285L33.327 40.3804L36.0588 37.0467C36.2109 36.8595 36.4734 36.8056 36.6922 36.9063L39.0521 38.0203L41.6432 33.0029C41.7348 32.8238 41.9182 32.714 42.1308 32.7241C42.336 32.7333 42.5162 32.8584 42.5923 33.0436L45.3397 39.7507L47.5755 40.8423L50.1604 37.123C50.2229 37.0335 50.3135 36.9653 50.4188 36.9297L52.3243 36.2766L54.5143 30.3049C54.6112 30.0404 54.9102 29.9041 55.1801 29.9977C55.4509 30.0923 55.5926 30.3833 55.4947 30.6488L53.2214 36.8483C53.1682 36.9928 53.0515 37.1057 52.9036 37.1566L50.9261 37.8341L48.1808 41.7833C48.0339 41.9929 47.7495 42.0672 47.5172 41.9522L44.6958 40.5747C44.5823 40.5188 44.4927 40.4252 44.4447 40.3082L42.0526 34.4688L39.7511 38.9257C39.623 39.1729 39.3167 39.2767 39.0593 39.1546L36.6131 37.9999L34.0522 41.1261C33.9938 41.1973 33.9167 41.2523 33.8292 41.2838L31.7132 42.0621C31.6528 42.0824 31.5903 42.0936 31.5288 42.0936Z" fill="#472B29"/>
<path d="M30.9953 58.2771C30.8516 58.2771 30.7349 58.1631 30.7349 58.0227V30.4769C30.7349 30.3365 30.8516 30.2225 30.9953 30.2225C31.1391 30.2225 31.2558 30.3375 31.2558 30.4769V58.0227C31.2558 58.1631 31.1391 58.2771 30.9953 58.2771Z" fill="#472B29"/>
<path d="M30.9953 27.2886C30.8516 27.2886 30.7349 27.1747 30.7349 27.0343V24.2794C30.7349 24.139 30.8516 24.0251 30.9953 24.0251C31.1391 24.0251 31.2558 24.14 31.2558 24.2794V27.0343C31.2558 27.1747 31.1391 27.2886 30.9953 27.2886Z" fill="#472B29"/>
<path d="M30.9953 22.4675C30.8516 22.4675 30.7349 22.3536 30.7349 22.2132V15.327C30.7349 15.1866 30.8516 15.0727 30.9953 15.0727C31.1391 15.0727 31.2558 15.1876 31.2558 15.328V22.2142C31.2558 22.3536 31.1391 22.4675 30.9953 22.4675Z" fill="#472B29"/>
<path d="M39.3302 58.6219C39.1865 58.6219 39.0698 58.508 39.0698 58.3676V52.514C39.0698 52.3736 39.1865 52.2596 39.3302 52.2596C39.474 52.2596 39.5907 52.3746 39.5907 52.514V58.3676C39.5907 58.508 39.474 58.6219 39.3302 58.6219Z" fill="#472B29"/>
<path d="M39.3302 50.0134C39.1865 50.0134 39.0698 49.8995 39.0698 49.7591V15.6719C39.0698 15.5315 39.1865 15.4175 39.3302 15.4175C39.474 15.4175 39.5907 15.5315 39.5907 15.6719V49.7601C39.5907 49.8995 39.474 50.0134 39.3302 50.0134Z" fill="#472B29"/>
<path d="M55.7395 58.2771C55.302 58.2771 54.9581 57.863 54.9581 57.334V15.8438C54.9581 15.3229 55.3082 14.8997 55.7395 14.8997C56.1709 14.8997 56.5209 15.3229 56.5209 15.8438V57.334C56.5209 57.863 56.1771 58.2771 55.7395 58.2771Z" fill="#39C1D7"/>
<path d="M55.7395 15.1551C56.0271 15.1551 56.2605 15.4643 56.2605 15.8438V57.335C56.2605 57.7155 56.0271 58.0238 55.7395 58.0238C55.452 58.0238 55.2186 57.7145 55.2186 57.335V15.8438C55.2186 15.4643 55.452 15.1551 55.7395 15.1551ZM55.7395 14.6464C55.1551 14.6464 54.6977 15.1724 54.6977 15.8438V57.335C54.6977 58.0065 55.1551 58.5324 55.7395 58.5324C56.324 58.5324 56.7814 58.0065 56.7814 57.335V15.8438C56.7814 15.1724 56.324 14.6464 55.7395 14.6464Z" fill="#472B29"/>
<path d="M55.7395 30.3172C54.4466 30.3172 53.3953 29.2897 53.3953 28.0282C53.3953 26.7667 54.4466 25.7392 55.7395 25.7392C57.0325 25.7392 58.0837 26.7667 58.0837 28.0282C58.0837 29.0414 57.3888 29.9458 56.3928 30.2266C56.1823 30.2866 55.9625 30.3172 55.7395 30.3172Z" fill="#39C1D7"/>
<path d="M55.7395 25.9936C56.8887 25.9936 57.8233 26.9061 57.8233 28.0282C57.8233 28.9285 57.2054 29.7322 56.3199 29.9835C56.1334 30.0364 55.9375 30.0628 55.7395 30.0628C54.5904 30.0628 53.6558 29.1503 53.6558 28.0282C53.6558 26.9061 54.5904 25.9936 55.7395 25.9936ZM55.7395 25.4849C54.3007 25.4849 53.1349 26.6233 53.1349 28.0282C53.1349 29.4331 54.3007 30.5715 55.7395 30.5715C55.9917 30.5715 56.2355 30.5369 56.4657 30.4718C57.5503 30.1646 58.3442 29.1869 58.3442 28.0282C58.3442 26.6233 57.1783 25.4849 55.7395 25.4849Z" fill="#472B29"/>
<path d="M63.814 58.6219C63.6702 58.6219 63.5535 58.508 63.5535 58.3676V29.0994C63.5535 28.959 63.6702 28.8451 63.814 28.8451C63.9577 28.8451 64.0744 28.959 64.0744 29.0994V58.3676C64.0744 58.508 63.9577 58.6219 63.814 58.6219Z" fill="#472B29"/>
<path d="M63.814 26.5999C63.6702 26.5999 63.5535 26.4859 63.5535 26.3456V24.2804C63.5535 24.14 63.6702 24.0261 63.814 24.0261C63.9577 24.0261 64.0744 24.14 64.0744 24.2804V26.3456C64.0744 26.4849 63.9577 26.5999 63.814 26.5999Z" fill="#472B29"/>
<path d="M63.814 22.4675C63.6702 22.4675 63.5535 22.3536 63.5535 22.2132V15.6709C63.5535 15.5305 63.6702 15.4165 63.814 15.4165C63.9577 15.4165 64.0744 15.5305 64.0744 15.6709V22.2132C64.0744 22.3536 63.9577 22.4675 63.814 22.4675Z" fill="#472B29"/>
<path d="M47.6651 52.7683C47.5213 52.7683 47.4047 52.6544 47.4047 52.514V49.7591C47.4047 49.6187 47.5213 49.5047 47.6651 49.5047C47.8089 49.5047 47.9256 49.6197 47.9256 49.7591V52.514C47.9256 52.6544 47.8089 52.7683 47.6651 52.7683Z" fill="#472B29"/>
<path d="M47.6651 47.9483C47.5213 47.9483 47.4047 47.8343 47.4047 47.6939V24.9681C47.4047 24.8277 47.5213 24.7138 47.6651 24.7138C47.8089 24.7138 47.9256 24.8277 47.9256 24.9681V47.6939C47.9256 47.8343 47.8089 47.9483 47.6651 47.9483Z" fill="#472B29"/>
<path d="M47.6651 23.1573C47.5213 23.1573 47.4047 23.0433 47.4047 22.903V21.5255C47.4047 21.3851 47.5213 21.2712 47.6651 21.2712C47.8089 21.2712 47.9256 21.3851 47.9256 21.5245V22.9019C47.9256 23.0433 47.8089 23.1573 47.6651 23.1573Z" fill="#472B29"/>
<path d="M47.6651 58.6219C47.5213 58.6219 47.4047 58.508 47.4047 58.3676V55.2689C47.4047 55.1285 47.5213 55.0145 47.6651 55.0145C47.8089 55.0145 47.9256 55.1295 47.9256 55.2689V58.3676C47.9256 58.508 47.8089 58.6219 47.6651 58.6219Z" fill="#472B29"/>
<path d="M47.6651 19.0249C47.5213 19.0249 47.4047 18.911 47.4047 18.7706V15.6709C47.4047 15.5305 47.5213 15.4165 47.6651 15.4165C47.8089 15.4165 47.9256 15.5315 47.9256 15.6719V18.7706C47.9256 18.911 47.8089 19.0249 47.6651 19.0249Z" fill="#472B29"/>
<path d="M62.5116 15.7187C66.303 15.7187 69.3879 18.7309 69.3879 22.433V50.9178C69.3879 54.6198 66.303 57.6321 62.5116 57.6321H33.3395C29.5482 57.6321 26.4633 54.6198 26.4633 50.9178V22.433C26.4633 18.7309 29.5482 15.7187 33.3395 15.7187H62.5116ZM62.5116 14.2944H33.3395C28.7366 14.2944 25.0047 17.9385 25.0047 22.433V50.9178C25.0047 55.4123 28.7366 59.0563 33.3395 59.0563H62.5116C67.1146 59.0563 70.8465 55.4123 70.8465 50.9178V22.433C70.8465 17.9385 67.1146 14.2944 62.5116 14.2944Z" fill="#472B29"/>
<path d="M32.8186 60.5823C32.8186 60.5823 34.4512 60.5823 36.4651 60.5823C38.479 60.5823 40.1116 58.9882 40.1116 57.0217C40.1116 55.2099 38.7207 53.7317 36.9287 53.5069C36.9579 53.3248 36.986 53.1427 36.986 52.9524C36.986 50.986 35.3535 49.3918 33.3395 49.3918C32.2643 49.3918 31.3079 49.8547 30.6411 50.577C30.241 48.7377 28.5709 47.3572 26.5674 47.3572C24.266 47.3572 22.4 49.1792 22.4 51.4265C22.4 51.6208 22.4313 51.8069 22.4583 51.9941C22.0124 51.6442 21.454 51.4265 20.8372 51.4265C19.5578 51.4265 18.4982 52.3288 18.2794 53.517C18.0929 53.4886 17.9065 53.4611 17.7116 53.4611C15.6977 53.4611 14.0651 55.0552 14.0651 57.0217C14.0651 58.9882 15.6977 60.5823 17.7116 60.5823C19.7255 60.5823 25.5256 60.5823 25.5256 60.5823V61.091H32.8186V60.5823Z" fill="#FDFCEF"/>
<path d="M34.6419 56.0044C34.4981 56.0044 34.3814 55.8904 34.3814 55.7501C34.3814 54.5059 35.418 53.4936 36.6922 53.4936C36.7277 53.5028 37.4601 53.4926 37.9883 53.632C38.1269 53.6686 38.2092 53.808 38.1717 53.9433C38.1342 54.0796 37.9914 54.16 37.8529 54.1223C37.3903 54.0003 36.7068 54.0003 36.6933 54.0023C35.7056 54.0023 34.9023 54.7867 34.9023 55.7501C34.9023 55.8904 34.7856 56.0044 34.6419 56.0044Z" fill="#472B29"/>
<path d="M27.6093 61.091C27.897 61.091 28.1302 60.8632 28.1302 60.5823C28.1302 60.3014 27.897 60.0736 27.6093 60.0736C27.3216 60.0736 27.0884 60.3014 27.0884 60.5823C27.0884 60.8632 27.3216 61.091 27.6093 61.091Z" fill="#472B29"/>
<path d="M36.4651 61.091H32.8186C32.5311 61.091 32.2977 60.8631 32.2977 60.5823C32.2977 60.3015 32.5311 60.0736 32.8186 60.0736H36.4651C38.1884 60.0736 39.5907 58.7043 39.5907 57.0217C39.5907 55.4998 38.4186 54.2058 36.8631 54.0115C36.7235 53.9931 36.5974 53.9219 36.513 53.8121C36.4287 53.7022 36.3932 53.5638 36.4151 53.4285C36.4391 53.2719 36.4651 53.1152 36.4651 52.9524C36.4651 51.2698 35.0628 49.9005 33.3395 49.9005C32.454 49.9005 31.633 50.2616 31.0276 50.9178C30.8974 51.0592 30.6932 51.1192 30.5067 51.0684C30.3171 51.0185 30.1723 50.87 30.1316 50.6828C29.7764 49.051 28.2771 47.8659 26.5674 47.8659C24.5567 47.8659 22.9209 49.463 22.9209 51.4265C22.9209 51.5719 22.9428 51.7113 22.9636 51.8517C22.9939 52.0582 22.898 52.2973 22.7115 52.401C22.525 52.5048 22.2989 52.5211 22.1322 52.3909C21.752 52.0928 21.305 51.9351 20.8372 51.9351C19.8308 51.9351 18.9702 52.6381 18.792 53.6076C18.742 53.8792 18.4836 54.0613 18.1992 54.0196C18.0388 53.9952 17.8783 53.9697 17.7116 53.9697C15.9884 53.9697 14.586 55.3391 14.586 57.0217C14.586 58.7043 15.9884 60.0736 17.7116 60.0736H25.5256C25.8131 60.0736 26.0465 60.3015 26.0465 60.5823C26.0465 60.8631 25.8131 61.091 25.5256 61.091H17.7116C15.4133 61.091 13.5442 59.2659 13.5442 57.0217C13.5442 54.7775 15.4133 52.9524 17.7116 52.9524C17.7731 52.9524 17.8325 52.9545 17.8929 52.9585C18.3242 51.752 19.4943 50.9178 20.8372 50.9178C21.2008 50.9178 21.555 50.9799 21.8905 51.1009C22.0624 48.7275 24.0941 46.8485 26.5674 46.8485C28.4751 46.8485 30.1785 47.9951 30.8943 49.6706C31.6028 49.1639 32.4592 48.8832 33.3395 48.8832C35.6379 48.8832 37.507 50.7082 37.507 52.9524C37.507 53.0013 37.5059 53.0491 37.5028 53.0969C39.3188 53.5526 40.6326 55.159 40.6326 57.0217C40.6326 59.2659 38.7635 61.091 36.4651 61.091Z" fill="#472B29"/>
<path d="M30.7349 60.0736C30.5692 60.0736 29.8587 60.0736 29.693 60.0736C29.4055 60.0736 29.1721 60.3015 29.1721 60.5823C29.1721 60.8631 29.4055 61.091 29.693 61.091C29.8587 61.091 30.5692 61.091 30.7349 61.091C31.0224 61.091 31.2558 60.8631 31.2558 60.5823C31.2558 60.3015 31.0224 60.0736 30.7349 60.0736Z" fill="#472B29"/>
</g>
</svg>
